<svg version="1.1" xmlns="http://www.w3.org/2000/svg" xmlns:xlink="http://www.w3.org/1999/xlink" viewBox="0 0 100 100" width="500" height="500">
  <path fill="#EEEEEE" d="M71.89,73.574c0,0-8.431-64.55-34.161-73.422c-6.654-2.662,8.43,35.934,8.43,35.934   S25.751,19.228,1.35,19.228c-6.654,0.887,25.289,20.852,25.289,20.852s-27.505,0.444-26.618,5.324   c0.888,4.879,31.94,11.534,31.94,11.534s-9.759,7.098-9.316,11.534c0.444,4.438,16.859,0,16.859,0s-3.994,9.317,1.774,11.978   c5.766,2.663,20.852-3.991,20.852-1.329c0,2.66-5.435,9.76-11.646,11.091c-6.21,1.331-7.874,7.541-7.874,9.315   c0,1.775,6.654-1.884,9.315-3.658c2.663-1.775,11.426-5.436,17.857-3.883c6.432,1.554,14.085-5.324,15.86-13.752   c1.774-8.431,5.877-6.878,7.041-7.044c1.165-0.166,2.276-2.163-2.163-2.163c-4.435,0-2.606-2.826-6.154-4.159   C80.817,63.536,75.328,64.368,71.89,73.574z">
  </path>
  <path fill="#EEEEEE" d="M72.744,66.429c0,0,15.159-19.755,13.317-43.191c-1.839-23.436-9.326-27.588-8.855-12.813   c0.472,14.777,0.472,14.777,0.472,14.777s-8.301-11.776-11.392-10.983c-3.091,0.792,0.664,7.765,2.815,14.546   c2.154,6.783-2.718-2.121-4.167-2.599c-1.447-0.479-1.54,2.882,1.991,12.625C70.459,48.533,72.744,66.429,72.744,66.429z">
  </path>
</svg>
